<svg width="32" height="32" viewBox="0 0 32 32" fill="none" xmlns="http://www.w3.org/2000/svg">
<rect width="32" height="32" rx="8" fill="white"/>
<path d="M12.5277 6.47174C12.3132 6.47174 12.1102 6.51781 11.9144 6.60131C11.9979 6.40839 12.044 6.20107 12.044 5.98655C12.044 4.78872 10.6403 3.81836 8.90829 3.81836C7.17633 3.81836 5.77261 4.78872 5.77261 5.98655C5.77261 6.20107 5.81868 6.40407 5.90219 6.60131C5.70927 6.51637 5.50195 6.47174 5.28888 6.47174C4.09248 6.47174 3.125 7.87689 3.125 9.61317C3.125 11.3495 4.09248 12.7546 5.28888 12.7546C5.50339 12.7546 5.70639 12.7085 5.90219 12.625C5.81868 12.818 5.77261 13.0253 5.77261 13.2398C5.77261 14.4376 7.17633 15.408 8.90829 15.408C10.6403 15.408 12.044 14.4376 12.044 13.2398C12.044 13.0253 11.9979 12.8223 11.9144 12.625C12.1073 12.71 12.3146 12.7546 12.5277 12.7546C13.7241 12.7546 14.6916 11.3495 14.6916 9.61317C14.6916 7.87689 13.7241 6.47174 12.5277 6.47174Z" fill="#EE7882"/>
<path d="M26.2754 22.0334C25.5743 21.7483 24.9192 21.7584 24.3203 21.9124C24.4729 21.315 24.4801 20.6585 24.195 19.9602C23.7027 18.7379 22.538 17.8654 21.2235 17.8424C19.3965 17.8078 17.9021 19.2835 17.9021 21.1062V27.7533C17.9021 28.0801 18.1656 28.3436 18.4909 28.3436H25.128C26.9478 28.3436 28.422 26.8463 28.3875 25.0164C28.363 23.6933 27.4963 22.5272 26.2754 22.0334Z" fill="#009540"/>
<path d="M28.752 7.80302C28.4238 6.98095 27.3915 6.562 26.5507 6.83554L24.61 7.46757L24.6071 5.33969C24.6071 4.39668 23.8354 3.625 22.8924 3.625C21.9494 3.625 21.1777 4.39668 21.1777 5.33969V7.47189L19.2384 6.84274C18.3976 6.5692 17.3639 6.98527 17.0371 7.81022C16.8313 8.3242 16.8788 8.88856 17.1681 9.35934C17.3913 9.72071 17.7555 9.97842 18.1601 10.1094L20.0807 10.7357L18.5517 12.7844C18.281 13.1558 18.1731 13.6094 18.245 14.0629C18.3156 14.5164 18.5589 14.9152 18.9303 15.1858C19.2269 15.4018 19.5753 15.5141 19.9367 15.5141C20.5874 15.5141 21.0611 15.1786 21.3246 14.8144L22.8982 12.711L24.4617 14.8043C24.7957 15.2679 25.3226 15.5112 25.8524 15.5112C26.2037 15.5112 26.555 15.4032 26.8588 15.1829C27.2302 14.9123 27.4735 14.5135 27.5441 14.06C27.6146 13.6065 27.5067 13.1501 27.2331 12.7714L25.707 10.7285L27.6247 10.1022C28.0293 9.96978 28.395 9.71639 28.6167 9.35214C28.9075 8.8828 28.9536 8.317 28.752 7.80302Z" fill="#F8AF00"/>
</svg>
