<svg width="20" height="20" viewBox="0 0 20 20" fill="none" xmlns="http://www.w3.org/2000/svg">
<g id="Shape">
<path id="Union" fill-rule="evenodd" clip-rule="evenodd" d="M17.0941 19.2388C17.6864 19.8311 18.6467 19.8311 19.239 19.2388C19.8313 18.6465 19.8313 17.6862 19.239 17.094L12.1453 10.0002L19.2384 2.90715C19.8306 2.31485 19.8306 1.35455 19.2384 0.762256C18.6461 0.169961 17.6858 0.169961 17.0935 0.762256L10.0004 7.85535L2.90613 0.761116C2.31384 0.168821 1.35354 0.168821 0.761241 0.761116C0.168946 1.35341 0.168946 2.31371 0.761241 2.90601L7.85548 10.0002L0.760628 17.0951C0.168332 17.6874 0.168332 18.6477 0.760628 19.24C1.35292 19.8323 2.31322 19.8323 2.90552 19.24L10.0004 12.1451L17.0941 19.2388Z" fill="#37373E"/>
</g>
</svg>
