<svg width="139" height="24" viewBox="0 0 139 24" fill="none" xmlns="http://www.w3.org/2000/svg">
<g id="&#240;&#159;&#145;&#137; Shape" clip-path="url(#clip0_4085_13986)">
<g id="Vector">
<path d="M118.731 22.9873C117.383 22.9873 116.292 21.8958 116.292 20.5479V3.27416C116.292 1.92626 117.383 0.834748 118.731 0.834748C120.079 0.834748 121.17 1.92626 121.17 3.27416V20.5454C121.17 21.8933 120.079 22.9848 118.731 22.9848V22.9873Z" fill="#37373E"/>
<path d="M73.0683 22.9848C71.7204 22.9848 70.6289 21.8933 70.6289 20.5454V9.22742C70.6289 7.87952 71.7204 6.78801 73.0683 6.78801C74.4162 6.78801 75.5077 7.87952 75.5077 9.22742V20.5454C75.5077 21.8933 74.4162 22.9848 73.0683 22.9848Z" fill="#37373E"/>
<path d="M33.4248 23.3114C28.2798 23.3114 24.092 19.126 24.092 13.981C24.092 8.83603 28.2773 4.64825 33.4248 4.64825C38.5722 4.64825 42.7575 8.83359 42.7575 13.981C42.7575 19.1285 38.5722 23.3114 33.4248 23.3114ZM33.4248 9.20231C30.79 9.20231 28.6485 11.3463 28.6485 13.9786C28.6485 16.6109 30.7924 18.7549 33.4248 18.7549C36.0571 18.7549 38.201 16.6109 38.201 13.9786C38.201 11.3463 36.0571 9.20231 33.4248 9.20231Z" fill="#37373E"/>
<path d="M60.339 4.97643C58.6859 4.97643 57.1744 5.59178 56.0145 6.60026C54.8546 5.59178 53.3455 4.97643 51.6899 4.97643C48.0491 4.97643 45.0896 7.9384 45.0896 11.5768V20.7044C45.0896 21.962 46.1103 22.9827 47.3679 22.9827C48.6254 22.9827 49.6461 21.9644 49.6461 20.7044V11.5768C49.6461 10.4486 50.5642 9.53049 51.6924 9.53049C52.8205 9.53049 53.7387 10.4486 53.7387 11.5768V20.7044C53.7387 21.962 54.7594 22.9827 56.0169 22.9827C57.2745 22.9827 58.2952 21.9644 58.2952 20.7044V11.5768C58.2952 10.4486 59.2133 9.53049 60.3414 9.53049C61.4696 9.53049 62.3877 10.4486 62.3877 11.5768V20.7044C62.3877 21.962 63.4084 22.9827 64.666 22.9827C65.9235 22.9827 66.9442 21.9644 66.9442 20.7044V11.5768C66.9442 7.93596 63.9823 4.97643 60.3439 4.97643H60.339Z" fill="#37373E"/>
<path d="M15.1595 4.97643C13.5064 4.97643 11.9949 5.59178 10.835 6.60026C9.67514 5.59178 8.16607 4.97643 6.51049 4.97643C2.87213 4.97643 -0.0898438 7.9384 -0.0898438 11.5768V20.7044C-0.0898438 21.962 0.930852 22.9827 2.18841 22.9827C3.44596 22.9827 4.46666 21.9644 4.46666 20.7044V11.5768C4.46666 10.4486 5.3848 9.53049 6.51294 9.53049C7.64107 9.53049 8.55921 10.4486 8.55921 11.5768V20.7044C8.55921 21.962 9.57991 22.9827 10.8375 22.9827C12.095 22.9827 13.1157 21.9644 13.1157 20.7044V11.5768C13.1157 10.4486 14.0339 9.53049 15.162 9.53049C16.2901 9.53049 17.2083 10.4486 17.2083 11.5768V20.7044C17.2083 21.962 18.229 22.9827 19.4865 22.9827C20.7441 22.9827 21.7648 21.9644 21.7648 20.7044V11.5768C21.7648 7.93596 18.8028 4.97643 15.1644 4.97643H15.1595Z" fill="#37373E"/>
<path d="M110.333 4.67038C109.098 4.67038 108.094 5.65689 108.062 6.88758C106.59 5.79119 104.773 5.13433 102.8 5.13433C97.9238 5.13433 93.9583 9.09991 93.9583 13.9763C93.9583 18.8527 97.9238 22.8183 102.8 22.8183C104.785 22.8183 106.612 22.1516 108.089 21.0455C108.255 22.1394 109.191 22.9819 110.333 22.9819C111.591 22.9819 112.612 21.9636 112.612 20.7036V6.94619C112.612 5.68863 111.591 4.66794 110.333 4.66794V4.67038ZM102.8 18.589C100.256 18.589 98.1876 16.5207 98.1876 13.9763C98.1876 11.4319 100.256 9.36363 102.8 9.36363C105.345 9.36363 107.413 11.4319 107.413 13.9763C107.413 16.5207 105.345 18.589 102.8 18.589Z" fill="#37373E"/>
<path d="M137.519 18.7555L132.686 14.7631L137.519 10.7682C138.488 9.96729 138.623 8.53148 137.822 7.56206C137.021 6.59265 135.585 6.4559 134.615 7.25927L129.553 11.4446V3.27416C129.553 1.92626 128.462 0.834748 127.114 0.834748C125.766 0.834748 124.675 1.92626 124.675 3.27416V20.5454C124.675 21.8933 125.766 22.9848 127.114 22.9848C128.462 22.9848 129.553 21.8933 129.553 20.5454V18.0816L134.618 22.2645C135.043 22.6161 135.556 22.787 136.068 22.787C136.725 22.787 137.375 22.5062 137.824 21.9592C138.625 20.9898 138.488 19.554 137.519 18.7531V18.7555Z" fill="#37373E"/>
<path d="M90.4986 18.8038H88.3937C87.5537 18.8038 86.8724 18.1201 86.8724 17.2825V10.0253H90.6817C91.8489 10.0253 92.7963 9.07789 92.7963 7.91068C92.7963 6.74347 91.8489 5.79603 90.6817 5.79603H86.8724V3.47871C86.8724 2.15034 85.7931 1.07104 84.4647 1.07104C83.1363 1.07104 82.0571 2.1479 82.0571 3.47871V5.79847H79.9619C78.7947 5.79847 77.8473 6.74592 77.8473 7.91312C77.8473 9.08033 78.7947 10.0278 79.9619 10.0278H82.0571V17.285C82.0571 20.7793 84.8994 23.6216 88.3937 23.6216H90.4986C91.8294 23.6216 92.9062 22.5447 92.9062 21.2139C92.9062 19.8831 91.8294 18.8062 90.4986 18.8062V18.8038Z" fill="#37373E"/>
<path d="M73.0659 5.76464C74.5197 5.76464 75.6983 4.58611 75.6983 3.13232C75.6983 1.67853 74.5197 0.5 73.0659 0.5C71.6121 0.5 70.4336 1.67853 70.4336 3.13232C70.4336 4.58611 71.6121 5.76464 73.0659 5.76464Z" fill="#37373E"/>
</g>
</g>
<defs>
<clipPath id="clip0_4085_13986">
<rect width="140" height="24" fill="white" transform="translate(-1)"/>
</clipPath>
</defs>
</svg>
