<svg width="200" height="64" viewBox="0 0 200 64" fill="none" xmlns="http://www.w3.org/2000/svg">
<g id="img_download_apple">
<path d="M0 12C0 5.37258 5.37258 0 12 0H188C194.627 0 200 5.37258 200 12V52C200 58.6274 194.627 64 188 64H12C5.37258 64 0 58.6274 0 52V12Z" fill="white"/>
<g id="Group">
<g id="&#60;Group&#62;">
<g id="&#60;Group&#62;_2">
<path id="&#60;Path&#62;" d="M55.0714 32.117C55.0851 31.0509 55.3683 30.0057 55.8945 29.0785C56.4208 28.1513 57.173 27.3723 58.0813 26.8139C57.5043 25.9899 56.7431 25.3118 55.8582 24.8334C54.9733 24.355 53.9891 24.0895 52.9836 24.0581C50.8389 23.8329 48.7596 25.3415 47.6667 25.3415C46.5526 25.3415 44.8698 24.0804 43.0578 24.1177C41.8857 24.1556 40.7434 24.4964 39.7423 25.107C38.7411 25.7176 37.9151 26.5771 37.3449 27.6018C34.8747 31.8785 36.7172 38.1637 39.0834 41.6207C40.2673 43.3134 41.6509 45.2043 43.4613 45.1372C45.2329 45.0638 45.8945 44.0076 48.033 44.0076C50.1516 44.0076 50.7724 45.1372 52.6195 45.0946C54.5205 45.0637 55.7182 43.3943 56.8606 41.6855C57.7112 40.4794 58.3657 39.1463 58.7999 37.7357C57.6955 37.2686 56.753 36.4867 56.09 35.4875C55.4269 34.4884 55.0727 33.3161 55.0714 32.117Z" fill="black"/>
<path id="&#60;Path&#62;_2" d="M51.5841 21.7845C52.6206 20.5402 53.1312 18.9409 53.0076 17.3262C51.424 17.4925 49.9613 18.2493 48.9108 19.4459C48.3972 20.0304 48.0038 20.7104 47.7531 21.4471C47.5025 22.1838 47.3995 22.9626 47.45 23.7391C48.2421 23.7473 49.0256 23.5756 49.7417 23.237C50.4578 22.8984 51.0878 22.4018 51.5841 21.7845Z" fill="black"/>
</g>
</g>
<g id="Group_2">
<path id="Vector" d="M77.4722 35.8382H71.4266L69.9748 40.1252H67.4141L73.1404 24.2646H75.8008L81.5272 40.1252H78.9228L77.4722 35.8382ZM72.0527 33.8601H76.8449L74.4825 26.9027H74.4164L72.0527 33.8601Z" fill="black"/>
<path id="Vector_2" d="M93.8926 34.344C93.8926 37.9375 91.9693 40.2462 89.0669 40.2462C88.3316 40.2846 87.6004 40.1153 86.957 39.7575C86.3135 39.3997 85.7838 38.8679 85.4285 38.2231H85.3736V43.9506H83V28.5616H85.2975V30.4849H85.3412C85.7128 29.8432 86.2515 29.3141 86.8998 28.9542C87.5482 28.5942 88.282 28.4167 89.0232 28.4406C91.958 28.4406 93.8926 30.7606 93.8926 34.344ZM91.4529 34.344C91.4529 32.0029 90.243 30.4637 88.3971 30.4637C86.5835 30.4637 85.3636 32.0353 85.3636 34.344C85.3636 36.674 86.5835 38.2343 88.3971 38.2343C90.2431 38.2343 91.4529 36.7064 91.4529 34.344Z" fill="black"/>
<path id="Vector_3" d="M106.619 34.344C106.619 37.9374 104.696 40.2462 101.793 40.2462C101.058 40.2846 100.327 40.1153 99.6835 39.7575C99.0401 39.3997 98.5104 38.8679 98.1551 38.223H98.1002V43.9506H95.7266V28.5616H98.0241V30.4849H98.0677C98.4393 29.8431 98.978 29.3141 99.6263 28.9542C100.275 28.5942 101.009 28.4167 101.75 28.4406C104.685 28.4406 106.619 30.7606 106.619 34.344ZM104.179 34.344C104.179 32.0029 102.97 30.4637 101.124 30.4637C99.3101 30.4637 98.0902 32.0353 98.0902 34.344C98.0902 36.6739 99.3101 38.2343 101.124 38.2343C102.97 38.2343 104.179 36.7064 104.179 34.344H104.179Z" fill="black"/>
<path id="Vector_4" d="M115.031 35.7058C115.207 37.2787 116.735 38.3114 118.823 38.3114C120.824 38.3114 122.263 37.2786 122.263 35.8605C122.263 34.6294 121.395 33.8923 119.339 33.3871L117.284 32.8919C114.372 32.1884 113.019 30.8264 113.019 28.6162C113.019 25.8797 115.404 24 118.791 24C122.142 24 124.44 25.8797 124.517 28.6162H122.121C121.977 27.0334 120.669 26.078 118.757 26.078C116.845 26.078 115.536 27.0446 115.536 28.4516C115.536 29.5729 116.372 30.2327 118.416 30.7378L120.164 31.1669C123.418 31.9364 124.77 33.2436 124.77 35.5635C124.77 38.5308 122.407 40.3893 118.647 40.3893C115.13 40.3893 112.755 38.5745 112.602 35.7057L115.031 35.7058Z" fill="black"/>
<path id="Vector_5" d="M129.894 25.8247V28.5613H132.093V30.4409H129.894V36.8158C129.894 37.8061 130.335 38.2676 131.301 38.2676C131.562 38.2631 131.823 38.2447 132.082 38.2127V40.0811C131.647 40.1624 131.206 40.1991 130.764 40.1909C128.422 40.1909 127.509 39.3116 127.509 37.0689V30.4409H125.828V28.5613H127.509V25.8247H129.894Z" fill="black"/>
<path id="Vector_6" d="M133.367 34.3436C133.367 30.7052 135.51 28.4189 138.852 28.4189C142.204 28.4189 144.337 30.7052 144.337 34.3436C144.337 37.9919 142.215 40.2682 138.852 40.2682C135.489 40.2682 133.367 37.9919 133.367 34.3436ZM141.919 34.3436C141.919 31.8477 140.775 30.3747 138.852 30.3747C136.928 30.3747 135.786 31.859 135.786 34.3436C135.786 36.8493 136.928 38.3112 138.852 38.3112C140.775 38.3112 141.919 36.8493 141.919 34.3436H141.919Z" fill="black"/>
<path id="Vector_7" d="M146.293 28.5615H148.557V30.5297H148.612C148.765 29.915 149.125 29.3717 149.632 28.9913C150.138 28.6108 150.76 28.4163 151.393 28.4405C151.667 28.4395 151.94 28.4692 152.206 28.5291V30.7492C151.861 30.6437 151.501 30.5952 151.14 30.6058C150.795 30.5918 150.451 30.6526 150.132 30.784C149.813 30.9154 149.526 31.1143 149.291 31.3671C149.056 31.6198 148.879 31.9204 148.771 32.2482C148.663 32.5761 148.628 32.9233 148.667 33.2662V40.1251H146.293L146.293 28.5615Z" fill="black"/>
<path id="Vector_8" d="M163.15 36.7284C162.831 38.8275 160.786 40.2682 158.171 40.2682C154.807 40.2682 152.719 38.0143 152.719 34.3984C152.719 30.7713 154.818 28.4189 158.071 28.4189C161.27 28.4189 163.282 30.6167 163.282 34.1228V34.936H155.115V35.0794C155.077 35.505 155.13 35.9337 155.271 36.3371C155.412 36.7405 155.637 37.1094 155.931 37.4192C156.225 37.7289 156.582 37.9726 156.978 38.1339C157.373 38.2952 157.799 38.3705 158.226 38.3548C158.786 38.4074 159.349 38.2775 159.83 37.9844C160.312 37.6914 160.685 37.2508 160.896 36.7284L163.15 36.7284ZM155.126 33.2771H160.907C160.929 32.8945 160.871 32.5115 160.737 32.1524C160.603 31.7932 160.397 31.4656 160.13 31.19C159.864 30.9144 159.544 30.6968 159.189 30.551C158.835 30.4051 158.454 30.334 158.071 30.3423C157.684 30.34 157.301 30.4142 156.944 30.5608C156.586 30.7073 156.261 30.9233 155.987 31.1961C155.713 31.469 155.496 31.7933 155.348 32.1505C155.201 32.5077 155.125 32.8906 155.126 33.2771V33.2771Z" fill="black"/>
</g>
</g>
</g>
</svg>
