<svg width="200" height="64" viewBox="0 0 200 64" fill="none" xmlns="http://www.w3.org/2000/svg">
<g id="img_download_google">
<path d="M0 12C0 5.37258 5.37258 0 12 0H188C194.627 0 200 5.37258 200 12V52C200 58.6274 194.627 64 188 64H12C5.37258 64 0 58.6274 0 52V12Z" fill="white"/>
<g id="Group">
<path id="Vector" d="M42.7632 30.6782L30.1133 43.9314C30.2585 44.4327 30.5156 44.8945 30.8651 45.282C31.2146 45.6696 31.6476 45.9727 32.1312 46.1688C32.6149 46.3648 33.1367 46.4485 33.6575 46.4136C34.1782 46.3788 34.6842 46.2262 35.1374 45.9675L49.371 37.861L42.7632 30.6782Z" fill="#EA4335"/>
<path id="Vector_2" d="M55.5562 28.4248L49.4009 24.8994L42.4727 30.9793L49.4292 37.8415L55.5373 34.3539C55.9275 34.1511 56.2737 33.8732 56.5561 33.5363C56.8385 33.1993 57.0515 32.8098 57.1829 32.3902C57.3143 31.9706 57.3614 31.5292 57.3217 31.0914C57.2819 30.6535 57.1561 30.2278 56.9513 29.8387C56.6317 29.2368 56.1393 28.7443 55.5373 28.4248H55.5562Z" fill="#FBBC04"/>
<path id="Vector_3" d="M30.1131 18.7822C30.0378 19.0651 29.9998 19.3567 30 19.6494V43.064C29.9998 43.3568 30.0378 43.6483 30.1131 43.9313L43.1966 31.0174L30.1131 18.7822Z" fill="#4285F4"/>
<path id="Vector_4" d="M42.8575 31.3568L49.3992 24.8999L35.1846 16.7556C34.6496 16.4429 34.0415 16.277 33.4219 16.2749C32.6734 16.2734 31.945 16.5167 31.3477 16.9677C30.7503 17.4187 30.3168 18.0526 30.1133 18.7728L42.8575 31.3568Z" fill="#34A853"/>
<path id="Vector_5" fill-rule="evenodd" clip-rule="evenodd" d="M99.7817 29.306C96.8765 29.306 94.5217 31.5102 94.5217 34.5506C94.5217 37.5633 96.8919 39.7952 99.7817 39.7952C102.687 39.7952 105.042 37.5756 105.042 34.5506C105.042 31.5102 102.687 29.306 99.7817 29.306ZM99.7817 37.717C98.1923 37.717 96.8243 36.4013 96.8243 34.5383C96.8243 32.6476 98.1954 31.3596 99.7817 31.3596C101.371 31.3596 102.739 32.6476 102.739 34.5383C102.742 36.4136 101.371 37.717 99.7817 37.717ZM88.3056 29.306C85.4005 29.306 83.0456 31.5102 83.0456 34.5506C83.0456 37.5633 85.4158 39.7952 88.3056 39.7952C91.2107 39.7952 93.5656 37.5756 93.5656 34.5506C93.5656 31.5102 91.2077 29.306 88.3056 29.306ZM88.3056 37.717C86.7162 37.717 85.3482 36.4013 85.3482 34.5383C85.3482 32.6476 86.7193 31.3596 88.3056 31.3596C89.895 31.3596 91.263 32.6476 91.263 34.5383C91.263 36.4136 89.895 37.717 88.3056 37.717ZM74.6499 30.9076V33.1272H79.9775C79.8146 34.3723 79.4026 35.2915 78.7724 35.9217C77.9916 36.7025 76.7865 37.551 74.6622 37.551C71.3882 37.551 68.8273 34.9072 68.8273 31.6332C68.8273 28.3591 71.3882 25.7153 74.6622 25.7153C76.4299 25.7153 77.718 26.4131 78.6741 27.3047L80.2481 25.7307C78.92 24.4579 77.1523 23.4834 74.6745 23.4834C70.1831 23.4834 66.4141 27.1417 66.4141 31.6209C66.4141 36.1123 70.18 39.7583 74.6745 39.7583C77.1001 39.7583 78.92 38.9652 80.3587 37.4711C81.8251 36.0047 82.2893 33.9357 82.2893 32.2664C82.2893 31.7469 82.2494 31.2796 82.1664 30.883H74.6468C74.6499 30.88 74.6499 30.9076 74.6499 30.9076ZM130.505 32.6354C130.066 31.4579 128.738 29.2937 126.014 29.2937C123.315 29.2937 121.071 31.418 121.071 34.5383C121.071 37.4834 123.29 39.7829 126.275 39.7829C128.673 39.7829 130.069 38.3165 130.644 37.4557L128.864 36.2629C128.274 37.1391 127.453 37.714 126.288 37.714C125.11 37.714 124.286 37.179 123.739 36.1246L130.751 33.2195C130.751 33.2225 130.505 32.6354 130.505 32.6354ZM123.355 34.3877C123.299 32.3617 124.929 31.3319 126.094 31.3319C127.013 31.3319 127.779 31.7838 128.04 32.4417L123.355 34.3877ZM117.658 39.4693H119.961V24.0614H117.658V39.4693ZM113.877 30.4711H113.794C113.274 29.8532 112.288 29.2937 111.027 29.2937C108.411 29.2937 106.001 31.5963 106.001 34.5537C106.001 37.4988 108.399 39.7737 111.027 39.7737C112.272 39.7737 113.274 39.2111 113.794 38.5809H113.877V39.3341C113.877 41.3354 112.807 42.4144 111.082 42.4144C109.671 42.4144 108.795 41.4 108.439 40.5515L106.437 41.3877C107.012 42.7711 108.546 44.4834 111.079 44.4834C113.779 44.4834 116.066 42.894 116.066 39.0174V29.6072H113.889V30.4711C113.892 30.4711 113.877 30.4711 113.877 30.4711ZM111.233 37.717C109.644 37.717 108.316 36.389 108.316 34.5537C108.316 32.703 109.644 31.3626 111.233 31.3626C112.807 31.3626 114.028 32.7184 114.028 34.5537C114.043 36.389 112.81 37.717 111.233 37.717ZM141.287 24.0614H135.781V39.4693H138.083V33.6345H141.29C143.838 33.6345 146.344 31.7869 146.344 28.8541C146.344 25.9213 143.848 24.0614 141.287 24.0614ZM141.354 31.4825H138.08V26.1949H141.354C143.079 26.1949 144.054 27.6182 144.054 28.8387C144.054 30.0469 143.067 31.4825 141.354 31.4825ZM155.573 29.2783C153.9 29.2783 152.176 30.0192 151.462 31.6332L153.504 32.4816C153.943 31.6332 154.749 31.3442 155.6 31.3442C156.793 31.3442 157.998 32.0574 158.026 33.3301V33.4931C157.614 33.2594 156.71 32.9028 155.628 32.9028C153.424 32.9028 151.189 34.1079 151.189 36.3675C151.189 38.4364 152.996 39.7645 155.01 39.7645C156.556 39.7645 157.408 39.0666 157.94 38.2581H158.023V39.4509H160.242V33.5484C160.242 30.8 158.201 29.2783 155.573 29.2783ZM155.284 37.717C154.53 37.717 153.476 37.3481 153.476 36.4013C153.476 35.2085 154.792 34.7566 155.914 34.7566C156.928 34.7566 157.408 34.9748 158.01 35.2761C157.844 36.6595 156.676 37.7047 155.284 37.717ZM168.34 29.6072L165.696 36.2906H165.613L162.874 29.6072H160.396L164.506 38.9498L162.164 44.1422H164.562L170.885 29.6072H168.34ZM147.613 39.4693H149.916V24.0614H147.613V39.4693Z" fill="black"/>
</g>
</g>
</svg>
